<svg width="18" height="19" viewBox="0 0 18 19" fill="none" xmlns="http://www.w3.org/2000/svg">
<path d="M11.8079 11.8417C10.958 11.786 10.2897 11.0829 10.2897 10.2234C10.2897 10.1947 10.2903 10.166 10.292 10.1373V10.1413C10.2903 10.1143 10.2892 10.0828 10.2892 10.0507C10.2892 9.19288 10.9585 8.492 11.8034 8.44082H11.8079C12.6567 8.48694 13.3272 9.18613 13.3272 10.0423C13.3272 10.0771 13.3261 10.1114 13.3238 10.1458V10.1413C13.3255 10.1694 13.3267 10.2026 13.3267 10.2358C13.3267 11.0924 12.6567 11.7928 11.8118 11.8411H11.8073L11.8079 11.8417ZM6.20203 11.8417C5.35209 11.786 4.68384 11.0829 4.68384 10.2234C4.68384 10.1947 4.6844 10.166 4.68609 10.1373V10.1413C4.6844 10.1143 4.68328 10.0828 4.68328 10.0507C4.68328 9.19288 5.35265 8.492 6.19753 8.44082H6.20203C7.05084 8.48694 7.72134 9.18613 7.72134 10.0423C7.72134 10.0771 7.72022 10.1114 7.71797 10.1458V10.1413C7.71965 10.1683 7.72078 10.1998 7.72078 10.2318C7.72078 11.0896 7.0514 11.7905 6.20653 11.8417H6.20203ZM14.846 4.13657C13.8543 3.66857 12.7023 3.29844 11.4963 3.08413L11.4125 3.07175C11.4097 3.07119 11.4063 3.07063 11.4029 3.07063C11.3832 3.07063 11.3663 3.08132 11.3573 3.09707C11.2257 3.32825 11.0828 3.61682 10.954 3.91269L10.9298 3.97513C10.3505 3.88232 9.68222 3.82944 9.00159 3.82944C8.32097 3.82944 7.65272 3.88232 7.00078 3.98413L7.07334 3.97457C6.92147 3.62019 6.77634 3.33219 6.61603 3.05319L6.63909 3.0965C6.62953 3.08019 6.61209 3.07007 6.5924 3.07007C6.58959 3.07007 6.58622 3.07007 6.5834 3.07063C5.29359 3.29732 4.14159 3.66688 3.06497 4.17144L3.1499 4.13544C3.14034 4.13938 3.13247 4.14613 3.1274 4.15457C1.52203 6.42763 0.561279 9.25588 0.561279 12.3086C0.561279 12.8188 0.588279 13.3222 0.640592 13.8183L0.635529 13.7564C0.637217 13.7728 0.645654 13.7863 0.657467 13.7958C1.86122 14.6964 3.26072 15.422 4.77103 15.8984L4.87003 15.9254C4.87453 15.9271 4.88015 15.9277 4.88578 15.9277C4.90378 15.9277 4.91953 15.9193 4.92909 15.9063C5.23003 15.5013 5.51634 15.0423 5.7644 14.5608L5.79084 14.5046C5.79422 14.4978 5.79647 14.4894 5.79647 14.4804C5.79647 14.4573 5.78184 14.4382 5.76159 14.4303H5.76103C5.24803 14.2323 4.81434 14.0214 4.40147 13.7795L4.44478 13.8031C4.42847 13.7936 4.41778 13.7761 4.41778 13.7564C4.41778 13.739 4.42622 13.7233 4.43915 13.7137C4.52747 13.6473 4.61634 13.5787 4.70072 13.5089C4.70972 13.5016 4.72153 13.4971 4.7339 13.4971C4.74178 13.4971 4.74909 13.4988 4.75528 13.5016H4.75472C5.99672 14.0984 7.45472 14.4472 8.99372 14.4472C10.5327 14.4472 11.9913 14.0984 13.2929 13.4758L13.2327 13.5016C13.2395 13.4983 13.2468 13.4966 13.2552 13.4966C13.2676 13.4966 13.2794 13.5011 13.2884 13.5084C13.3728 13.5781 13.4611 13.6479 13.5505 13.7137C13.5635 13.7238 13.5719 13.7396 13.5719 13.757C13.5719 13.7767 13.5612 13.7936 13.546 13.8031C13.1742 14.0253 12.7405 14.2357 12.2888 14.4095L12.2298 14.4298C12.2095 14.4376 12.1949 14.4573 12.1949 14.4798C12.1949 14.4888 12.1972 14.4973 12.2011 14.5046C12.4829 15.0446 12.7687 15.5024 13.0848 15.9373L13.0623 15.9052C13.0718 15.9187 13.0882 15.9277 13.1056 15.9277C13.1112 15.9277 13.1168 15.9266 13.1219 15.9254C14.7335 15.4237 16.1352 14.6981 17.3772 13.7699L17.3407 13.7964C17.353 13.7874 17.3609 13.7733 17.3626 13.7576C17.4115 13.3166 17.4391 12.8047 17.4391 12.2866C17.4391 9.24069 16.4761 6.41975 14.8387 4.11125L14.8679 4.15513C14.8634 4.14613 14.8555 4.13882 14.8465 4.13488L14.846 4.13657Z" fill="#C3C3C3"/>
</svg>
