<svg width="18" height="19" viewBox="0 0 18 19" fill="none" xmlns="http://www.w3.org/2000/svg">
<g clip-path="url(#clip0_46_95)">
<path fill-rule="evenodd" clip-rule="evenodd" d="M9 0.5C13.9707 0.5 18 4.63094 18 9.72764C18 13.8037 15.4242 17.2616 11.8503 18.4829C11.394 18.5738 11.232 18.2856 11.232 18.0399C11.232 17.7357 11.2428 16.7421 11.2428 15.5073C11.2428 14.6469 10.9548 14.0854 10.6317 13.7992C12.636 13.5706 14.742 12.7902 14.742 9.246C14.742 8.238 14.3928 7.41544 13.815 6.76924C13.9086 6.53614 14.2173 5.59756 13.7268 4.32676C13.7268 4.32676 12.9726 4.0795 11.2545 5.2729C10.5354 5.0686 9.765 4.96581 9 4.96221C8.235 4.96581 7.4655 5.0686 6.7473 5.2729C5.0274 4.0795 4.2714 4.32676 4.2714 4.32676C3.7827 5.59756 4.0914 6.53614 4.1841 6.76924C3.609 7.41544 3.2571 8.238 3.2571 9.246C3.2571 12.7812 5.3586 13.5735 7.3575 13.8066C7.1001 14.037 6.867 14.4435 6.786 15.0402C6.273 15.276 4.9698 15.6841 4.167 14.2738C4.167 14.2738 3.6909 13.3872 2.7873 13.3224C2.7873 13.3224 1.9098 13.3107 2.7261 13.8831C2.7261 13.8831 3.3156 14.1666 3.7251 15.2331C3.7251 15.2331 4.2534 16.8801 6.7572 16.3221C6.7617 17.0934 6.7698 17.8203 6.7698 18.0399C6.7698 18.2838 6.6042 18.5692 6.1551 18.4837C2.5785 17.2642 0 13.8046 0 9.72764C0 4.63094 4.0302 0.5 9 0.5Z" fill="#C3C3C3"/>
</g>
<defs>
<clipPath id="clip0_46_95">
<rect width="18" height="18" fill="white" transform="translate(0 0.5)"/>
</clipPath>
</defs>
</svg>
