<svg width="18" height="19" viewBox="0 0 18 19" fill="none" xmlns="http://www.w3.org/2000/svg">
<path d="M9.75 9.5C9.75 11.9853 7.73527 14 5.25 14C2.76472 14 0.75 11.9853 0.75 9.5C0.75 7.01472 2.76472 5 5.25 5C7.73527 5 9.75 7.01472 9.75 9.5Z" fill="#C3C3C3"/>
<path d="M17.25 9.5C17.25 11.571 16.9142 13.25 16.5 13.25C16.0858 13.25 15.75 11.571 15.75 9.5C15.75 7.42893 16.0858 5.75 16.5 5.75C16.9142 5.75 17.25 7.42893 17.25 9.5Z" fill="#C3C3C3"/>
<path d="M12.75 14C13.9927 14 15 11.9853 15 9.5C15 7.01472 13.9927 5 12.75 5C11.5073 5 10.5 7.01472 10.5 9.5C10.5 11.9853 11.5073 14 12.75 14Z" fill="#C3C3C3"/>
</svg>
