<svg width="18" height="19" viewBox="0 0 18 19" fill="none" xmlns="http://www.w3.org/2000/svg">
<g clip-path="url(#clip0_46_93)">
<path d="M12.4436 6.14751C12.447 6.14751 12.4515 6.14751 12.456 6.14751C12.5735 6.14751 12.6827 6.18407 12.7721 6.24707L12.7704 6.24594C12.8357 6.30276 12.8795 6.38263 12.8902 6.47263V6.47432C12.9015 6.54294 12.9077 6.62169 12.9077 6.70213C12.9077 6.73869 12.9065 6.77469 12.9037 6.81069V6.80563C12.7772 8.13819 12.2282 11.3698 11.9492 12.8615C11.831 13.4932 11.5987 13.7047 11.3737 13.7249C10.8849 13.7705 10.5137 13.4021 10.04 13.0916C9.29866 12.605 8.8796 12.3024 8.16016 11.8282C7.32822 11.2809 7.86766 10.9788 8.34128 10.4872C8.4656 10.3578 10.6205 8.39751 10.6627 8.21976C10.665 8.20907 10.6661 8.19726 10.6661 8.18488C10.6661 8.14101 10.6498 8.10107 10.6233 8.07069C10.5941 8.05157 10.5575 8.04088 10.5193 8.04088C10.494 8.04088 10.4698 8.04594 10.4473 8.05438L10.4484 8.05382C10.3742 8.07069 9.18991 8.85332 6.89566 10.4017C6.64535 10.5991 6.32922 10.724 5.98497 10.7386H5.9816C5.49391 10.6796 5.05122 10.571 4.63103 10.4163L4.67266 10.4298C4.14503 10.2577 3.72597 10.1671 3.76197 9.87576C3.7811 9.72426 3.98997 9.56919 4.3886 9.41057C6.8441 8.34069 8.48153 7.63551 9.30091 7.29501C10.2048 6.81519 11.2528 6.42032 12.3547 6.16438L12.443 6.14694L12.4436 6.14751ZM8.9606 1.07657C4.29072 1.08782 0.509033 4.87626 0.509033 9.54782C0.509033 14.2261 4.30141 18.0191 8.98028 18.0191C13.6592 18.0191 17.4515 14.2267 17.4515 9.54782C17.4515 4.87626 13.6698 1.08782 9.0011 1.07657H8.99997C8.98685 1.07657 8.97372 1.07657 8.9606 1.07657Z" fill="#C3C3C3"/>
</g>
<defs>
<clipPath id="clip0_46_93">
<rect width="18" height="18" fill="white" transform="translate(0 0.5)"/>
</clipPath>
</defs>
</svg>
