<svg width="18" height="19" viewBox="0 0 18 19" fill="none" xmlns="http://www.w3.org/2000/svg">
<g clip-path="url(#clip0_46_84)">
<path d="M17.5919 3.83221C17.3091 3.95763 17.0184 4.06348 16.7213 4.14941C17.073 3.75167 17.3411 3.28367 17.5048 2.77154C17.5415 2.65675 17.5035 2.5311 17.4091 2.45602C17.3149 2.38088 17.184 2.37188 17.0802 2.43337C16.4493 2.80754 15.7687 3.07644 15.055 3.23368C14.3361 2.53121 13.3597 2.13144 12.3503 2.13144C10.2196 2.13144 8.48619 3.86484 8.48619 5.99546C8.48619 6.16326 8.49681 6.33014 8.51783 6.4947C5.87386 6.26256 3.41582 4.96301 1.72788 2.89249C1.66773 2.81869 1.57506 2.77892 1.48018 2.78652C1.38525 2.79396 1.29995 2.84749 1.25199 2.92977C0.909639 3.51721 0.728652 4.18907 0.728652 4.87266C0.728652 5.80373 1.06107 6.68712 1.64828 7.37739C1.46973 7.31556 1.29646 7.23827 1.1311 7.14647C1.04232 7.09706 0.933968 7.09781 0.845768 7.14839C0.75751 7.19896 0.702175 7.29198 0.699852 7.39365C0.699446 7.41078 0.699446 7.42791 0.699446 7.44527C0.699446 8.83505 1.44743 10.0863 2.59101 10.7682C2.49277 10.7584 2.39458 10.7442 2.29703 10.7256C2.19646 10.7063 2.09305 10.7416 2.02523 10.8183C1.9573 10.8949 1.93483 11.0018 1.96612 11.0993C2.38941 12.4209 3.47923 13.3929 4.79671 13.6893C3.70399 14.3737 2.45439 14.7322 1.14259 14.7322C0.868878 14.7322 0.593594 14.7161 0.324175 14.6842C0.190336 14.6683 0.0623617 14.7473 0.0167811 14.8746C-0.0287996 15.002 0.0195101 15.1439 0.133375 15.2169C1.81858 16.2974 3.76717 16.8686 5.76836 16.8686C9.70246 16.8686 12.1635 15.0134 13.5353 13.4571C15.2459 11.5165 16.2269 8.94792 16.2269 6.40998C16.2269 6.30396 16.2253 6.19688 16.2221 6.09016C16.8969 5.58169 17.478 4.96632 17.9508 4.25904C18.0226 4.15162 18.0149 4.00965 17.9317 3.91077C17.8486 3.81183 17.7101 3.77983 17.5919 3.83221Z" fill="#C3C3C3"/>
</g>
<defs>
<clipPath id="clip0_46_84">
<rect width="18" height="18" fill="white" transform="translate(0 0.5)"/>
</clipPath>
</defs>
</svg>
