<svg width="33" height="32" viewBox="0 0 33 32" fill="none" xmlns="http://www.w3.org/2000/svg">
<g clip-path="url(#clip0_96_160)">
<path d="M16.0503 0C7.21372 0 0.050293 7.16343 0.050293 16C0.050293 24.8366 7.21372 32 16.0503 32C24.8869 32 32.0503 24.8366 32.0503 16C32.0503 7.16343 24.8869 0 16.0503 0ZM2.10097 17H5.53228C5.60863 18.6603 5.85953 20.1793 6.24921 21.5435H3.20014C2.58959 20.1338 2.21506 18.603 2.10097 17ZM20.9861 15C20.9109 13.3927 20.7203 11.8701 20.4624 10.4566H23.7402C24.1765 11.7982 24.476 13.3111 24.5663 15H20.9861ZM13.5282 21.5435C13.2459 19.9851 13.1074 18.4639 13.0817 17H19.0189C18.9933 18.4639 18.8547 19.9851 18.5724 21.5435H13.5282ZM18.1367 23.5435C17.6678 25.3435 16.9891 27.1784 16.0501 29.0173C15.1113 27.1784 14.4327 25.3435 13.9638 23.5435H18.1367ZM13.109 15C13.1882 13.3834 13.3926 11.8601 13.664 10.4566H18.4366C18.7081 11.8601 18.9124 13.3834 18.9917 15H13.109ZM14.1134 8.45662C14.7384 6.01685 15.5106 4.09189 16.0502 2.90671C16.5898 4.09189 17.362 6.01685 17.9871 8.45662H14.1134ZM20.0385 8.45662C19.4005 5.81257 18.5812 3.68862 17.9731 2.31589C18.7289 2.85368 21.2398 4.84147 22.9527 8.45662H20.0385ZM14.1272 2.31575C13.5191 3.68849 12.7 5.81251 12.062 8.45662H9.1475C10.8605 4.84114 13.3717 2.85335 14.1272 2.31575ZM11.6382 10.4566C11.3803 11.8702 11.1898 13.3927 11.1145 15.0001H7.53392C7.62424 13.3112 7.92366 11.7983 8.36004 10.4566H11.6382ZM5.53444 15H2.10097C2.21506 13.3971 2.58953 11.8664 3.20007 10.4566H6.26306C5.87051 11.8205 5.61464 13.3385 5.53444 15ZM7.53287 17H11.0871C11.1098 18.4664 11.2332 19.9856 11.4947 21.5435H8.36108C7.92105 20.1984 7.62058 18.6851 7.53287 17ZM11.9088 23.5435C12.3994 25.58 13.1281 27.6613 14.1778 29.7511C13.4695 29.2439 10.8944 27.2184 9.14842 23.5435H11.9088ZM17.9203 29.7556C18.9714 27.6643 19.7007 25.5815 20.1917 23.5435H22.9722C21.2314 27.2371 18.6453 29.2458 17.9203 29.7556ZM20.606 21.5435C20.8675 19.9856 20.9909 18.4664 21.0136 17H24.5684C24.4824 18.6881 24.1868 20.2011 23.7532 21.5435H20.606ZM26.5679 17H29.9996C29.8855 18.603 29.511 20.1337 28.9004 21.5435H25.851C26.2407 20.1793 26.4916 18.6603 26.5679 17ZM26.5658 15C26.4856 13.3384 26.2298 11.8205 25.8372 10.4566H28.9006C29.5112 11.8663 29.8856 13.397 29.9997 15H26.5658ZM27.8256 8.45662H25.1322C24.2382 6.30322 23.0728 4.59977 21.976 3.33427C24.3752 4.46145 26.4025 6.243 27.8256 8.45662ZM10.1239 3.33453C9.02727 4.60003 7.86195 6.30341 6.96804 8.45662H4.27501C5.69797 6.24313 7.72507 4.46178 10.1239 3.33453ZM4.27508 23.5435H6.95178C7.83224 25.6749 8.98123 27.3727 10.0703 28.6396C7.69496 27.511 5.68739 25.7403 4.27508 23.5435ZM22.0308 28.6393C23.1195 27.3725 24.2683 25.6748 25.1486 23.5435H27.8255C26.4133 25.7401 24.4059 27.5107 22.0308 28.6393Z" fill="#C3C3C3"/>
</g>
<defs>
<clipPath id="clip0_96_160">
<rect width="32" height="32" fill="white" transform="translate(0.050293)"/>
</clipPath>
</defs>
</svg>
