<svg width="72" height="72" viewBox="0 0 72 72" fill="none" xmlns="http://www.w3.org/2000/svg">
<path d="M6.61032 68.9862L7.57125 65.1484L4.92143 64.1022L3.10128 67.1019C3.10128 67.1019 4.10479 69.8239 2.99023 71.9998C2.9911 72 4.38577 69.6244 6.61032 68.9862ZM4.83016 67.2251C5.15633 67.0915 5.53227 67.2441 5.667 67.5644C5.80282 67.8847 5.6481 68.2534 5.32192 68.3871C4.99575 68.5207 4.61981 68.3682 4.48508 68.0479C4.34796 67.7263 4.5029 67.3575 4.83016 67.2251Z" fill="#C3C3C3"/>
<path d="M34.4103 24.4731C26.7796 30.7315 16.7898 43.623 8.31775 58.682L8.31297 58.6761L6.83203 61.2894L8.41119 61.897L9.24564 59.6986C13.7654 51.5516 26.0268 30.2754 48.4469 16.1395C48.4469 16.1395 56.7938 11.1682 65.0177 4.29287C63.0155 5.96656 59.0655 8.06442 56.9237 9.4178C51.3025 12.9694 44.3657 16.3072 34.4103 24.4731Z" fill="#C3C3C3"/>
<path d="M7.21464 46.8C5.47946 52.933 5.57877 57.6039 6.25024 58.8876H7.29983C10.198 52.8845 24.1566 31.1392 32.8449 24.3325C41.8466 17.2799 48.7904 13.1763 54.6305 10.1836C56.6812 9.13291 58.7849 7.70978 60.682 6.28317C62.9856 4.46649 65.321 2.52335 67.3658 0.621711L61.4384 4.50909L64.0813 0.466772L59.0355 5.59757L62.3189 0C54.5511 0.70081 47.3427 4.5871 47.3427 4.5871C44.4588 8.0077 42.1363 13.4492 42.1363 13.4492C42.0559 10.7284 43.8986 6.60826 43.8986 6.60826C42.537 7.22997 37.3636 10.1849 37.3636 10.1849C34.8331 12.2841 34.0471 17.8036 34.0471 17.8036C33.566 15.6264 35.2479 11.4294 35.2479 11.4294C27.9588 15.6277 22.7524 22.7795 22.7524 22.7795C19.1486 29.8534 22.1118 35.373 20.9901 34.0515C19.8683 32.7301 20.1095 27.9103 20.1095 27.9103C12.5002 35.2182 11.7 38.7156 11.7 38.7156C10.4188 41.8252 9.29708 50.1436 9.29708 50.1436C8.57606 49.3659 9.29708 45.0128 9.29708 45.0128C7.45455 48.9002 8.33616 52.5536 8.33616 52.5536C7.45563 52.2417 7.21464 46.8 7.21464 46.8Z" fill="#C3C3C3"/>
<path d="M67.3667 3.08378C67.3667 3.08378 64.4367 5.92287 60.6828 8.74523C54.7979 13.3867 49.1317 17.1808 49.1317 17.1808C26.9337 30.2978 14.5647 51.7039 10.4766 59.0436H12.6501C13.4182 58.4278 14.5719 57.9634 19.3896 56.5687C25.4765 54.8064 29.1075 51.1272 29.1075 51.1272C29.1075 51.1272 23.5546 54.2368 20.9379 53.9261C18.3211 53.6153 14.8048 54.5997 14.8048 54.5997C14.8048 54.5997 13.4621 53.978 20.0834 52.9934C26.7047 52.0088 37.5974 44.598 37.5974 44.598C37.5974 44.598 33.4323 46.3082 31.5104 46.1522C29.5886 45.9962 24.8361 46.1522 24.8361 46.1522C27.9859 45.4264 30.923 45.8414 35.7287 44.0271C40.5345 42.2129 40.2674 42.3689 40.2674 42.3689C45.7137 40.5546 47.9761 34.9062 47.9761 34.9062C47.0341 35.2691 39.8395 36.1496 36.8553 35.2691C33.8708 34.3886 28.7863 35.2691 28.7863 35.2691C33.592 33.6628 34.6605 34.3886 35.8341 34.3366C37.0089 34.2847 40.8007 34.5954 48.3296 32.0047C55.8586 29.414 57.9943 26.2003 57.9943 26.2003L52.9167 26.8787C56.2322 26.3209 59.9694 24.1272 59.9694 24.1272C57.6729 24.7489 54.0952 25.0597 54.0952 25.0597C58.3135 24.1272 60.6632 22.8316 60.6632 22.8316C64.6145 19.8259 65.5222 15.3689 65.5222 15.3689C59.915 17.286 55.484 16.4055 55.484 16.4055C63.1738 15.8878 65.3094 13.9175 66.3766 13.4519C67.4451 12.9851 67.8847 11.055 67.8847 11.055C63.9997 12.4544 59.5945 12.6872 59.5945 12.6872C64.36 11.9485 68.4436 9.5384 68.4436 9.5384V7.12588C66.6011 8.17546 63.3589 8.99209 63.3589 8.99209L68.4045 5.72752C68.6881 4.09425 67.3667 3.08378 67.3667 3.08378Z" fill="#C3C3C3"/>
<path d="M5.11719 63.1426L8.11817 64.3448L8.67708 63.0162L5.67631 61.8142L5.11719 63.1426Z" fill="#C3C3C3"/>
</svg>
